<mxfile host="65bd71144e">
    <diagram name="Page-1" id="1VTvxivwpSPhkvNJXZJ3">
        <mxGraphModel dx="1126" dy="751" grid="1" gridSize="10" guides="1" tooltips="1" connect="1" arrows="1" fold="1" page="1" pageScale="1" pageWidth="850" pageHeight="1100" background="#ffffff" math="0" shadow="0">
            <root>
                <mxCell id="sueAwKAaTNoMhfTQWeYg-0"/>
                <mxCell id="sueAwKAaTNoMhfTQWeYg-1" parent="sueAwKAaTNoMhfTQWeYg-0"/>
                <mxCell id="sueAwKAaTNoMhfTQWeYg-2" value="http://ics2o.mths.ca" style="swimlane;whiteSpace=wrap;html=1;strokeColor=#000000;strokeWidth=1;gradientColor=none;perimeterSpacing=0;glass=0;labelBackgroundColor=none;labelBorderColor=none;" parent="sueAwKAaTNoMhfTQWeYg-1" vertex="1">
                    <mxGeometry x="40" y="40" width="760" height="610" as="geometry"/>
                </mxCell>
                <mxCell id="sueAwKAaTNoMhfTQWeYg-3" value="" style="whiteSpace=wrap;html=1;glass=0;labelBackgroundColor=none;labelBorderColor=none;fontSize=22;fillColor=#b38878;strokeColor=#36393d;" parent="sueAwKAaTNoMhfTQWeYg-2" vertex="1">
                    <mxGeometry y="20" width="760" height="590" as="geometry"/>
                </mxCell>
                <mxCell id="sueAwKAaTNoMhfTQWeYg-4" value="" style="whiteSpace=wrap;html=1;fontSize=22;fillColor=#75523E;strokeColor=none;gradientColor=none;" parent="sueAwKAaTNoMhfTQWeYg-2" vertex="1">
                    <mxGeometry y="20" width="760" height="50" as="geometry"/>
                </mxCell>
                <mxCell id="sueAwKAaTNoMhfTQWeYg-8" value="&lt;span style=&quot;font-size: 24px;&quot;&gt;&lt;font color=&quot;#ffffff&quot;&gt;Click the cookie to get points. Points save across visits.&lt;/font&gt;&lt;/span&gt;" style="text;html=1;align=center;verticalAlign=middle;resizable=0;points=[];autosize=1;fontSize=26;fontColor=#000000;" parent="sueAwKAaTNoMhfTQWeYg-2" vertex="1">
                    <mxGeometry x="75" y="81" width="610" height="40" as="geometry"/>
                </mxCell>
                <mxCell id="sueAwKAaTNoMhfTQWeYg-15" value="Cookie Clicker" style="text;html=1;align=center;verticalAlign=middle;resizable=0;points=[];autosize=1;fontSize=30;fontColor=#FFFFFF;" parent="sueAwKAaTNoMhfTQWeYg-2" vertex="1">
                    <mxGeometry x="275" y="20" width="220" height="50" as="geometry"/>
                </mxCell>
                <mxCell id="iGiyrYhKWCO6xkSs6Czd-4" value="&lt;font color=&quot;#ffffff&quot; style=&quot;font-size: 29px;&quot;&gt;No clicks.&lt;/font&gt;" style="text;align=center;html=1;verticalAlign=middle;whiteSpace=wrap;rounded=0;fontColor=#000000;" parent="sueAwKAaTNoMhfTQWeYg-2" vertex="1">
                    <mxGeometry x="300" y="405" width="170" height="30" as="geometry"/>
                </mxCell>
                <mxCell id="15" value="" style="group" vertex="1" connectable="0" parent="sueAwKAaTNoMhfTQWeYg-2">
                    <mxGeometry x="275" y="146" width="210" height="210" as="geometry"/>
                </mxCell>
                <mxCell id="2" value="" style="ellipse;whiteSpace=wrap;html=1;fontColor=#FFFFFF;fillColor=#E3A002;strokeColor=#000000;" vertex="1" parent="15">
                    <mxGeometry width="210" height="210" as="geometry"/>
                </mxCell>
                <mxCell id="4" value="" style="ellipse;whiteSpace=wrap;html=1;strokeColor=#000000;fontColor=#FFFFFF;fillColor=#994C00;" vertex="1" parent="15">
                    <mxGeometry x="85" y="110" width="20" height="20" as="geometry"/>
                </mxCell>
                <mxCell id="9" value="" style="ellipse;whiteSpace=wrap;html=1;strokeColor=#000000;fontColor=#FFFFFF;fillColor=#994C00;" vertex="1" parent="15">
                    <mxGeometry x="75" y="30" width="20" height="20" as="geometry"/>
                </mxCell>
                <mxCell id="8" value="" style="ellipse;whiteSpace=wrap;html=1;strokeColor=#000000;fontColor=#FFFFFF;fillColor=#994C00;" vertex="1" parent="15">
                    <mxGeometry x="145" y="40" width="20" height="20" as="geometry"/>
                </mxCell>
                <mxCell id="7" value="" style="ellipse;whiteSpace=wrap;html=1;strokeColor=#000000;fontColor=#FFFFFF;fillColor=#994C00;" vertex="1" parent="15">
                    <mxGeometry x="35" y="70" width="20" height="20" as="geometry"/>
                </mxCell>
                <mxCell id="6" value="" style="ellipse;whiteSpace=wrap;html=1;strokeColor=#000000;fontColor=#FFFFFF;fillColor=#994C00;" vertex="1" parent="15">
                    <mxGeometry x="145" y="100" width="20" height="20" as="geometry"/>
                </mxCell>
                <mxCell id="5" value="" style="ellipse;whiteSpace=wrap;html=1;strokeColor=#000000;fontColor=#FFFFFF;fillColor=#994C00;" vertex="1" parent="15">
                    <mxGeometry x="115" y="150" width="20" height="20" as="geometry"/>
                </mxCell>
                <mxCell id="14" value="" style="ellipse;whiteSpace=wrap;html=1;strokeColor=#000000;fontColor=#FFFFFF;fillColor=#994C00;" vertex="1" parent="15">
                    <mxGeometry x="50" y="160" width="20" height="20" as="geometry"/>
                </mxCell>
            </root>
        </mxGraphModel>
    </diagram>
    <diagram name="Page-2" id="mOGDnTqXf-0Y3zRoWPRT">
        <mxGraphModel dx="1126" dy="751" grid="1" gridSize="10" guides="1" tooltips="1" connect="1" arrows="1" fold="1" page="1" pageScale="1" pageWidth="850" pageHeight="1100" background="#ffffff" math="0" shadow="0">
            <root>
                <mxCell id="NyM_jjObggYpz3M2ubvP-0"/>
                <mxCell id="NyM_jjObggYpz3M2ubvP-1" parent="NyM_jjObggYpz3M2ubvP-0"/>
                <mxCell id="NyM_jjObggYpz3M2ubvP-2" value="http://ics2o.mths.ca" style="swimlane;whiteSpace=wrap;html=1;strokeColor=#000000;strokeWidth=1;gradientColor=none;perimeterSpacing=0;glass=0;labelBackgroundColor=none;labelBorderColor=none;" vertex="1" parent="NyM_jjObggYpz3M2ubvP-1">
                    <mxGeometry x="40" y="40" width="760" height="610" as="geometry"/>
                </mxCell>
                <mxCell id="NyM_jjObggYpz3M2ubvP-3" value="" style="whiteSpace=wrap;html=1;glass=0;labelBackgroundColor=none;labelBorderColor=none;fontSize=22;fillColor=#b38878;strokeColor=#36393d;" vertex="1" parent="NyM_jjObggYpz3M2ubvP-2">
                    <mxGeometry y="20" width="760" height="590" as="geometry"/>
                </mxCell>
                <mxCell id="NyM_jjObggYpz3M2ubvP-4" value="" style="whiteSpace=wrap;html=1;fontSize=22;fillColor=#75523E;strokeColor=none;gradientColor=none;" vertex="1" parent="NyM_jjObggYpz3M2ubvP-2">
                    <mxGeometry y="20" width="760" height="50" as="geometry"/>
                </mxCell>
                <mxCell id="NyM_jjObggYpz3M2ubvP-5" value="&lt;span style=&quot;font-size: 24px;&quot;&gt;&lt;font color=&quot;#ffffff&quot;&gt;Click the cookie to get points. Points save across visits.&lt;/font&gt;&lt;/span&gt;" style="text;html=1;align=center;verticalAlign=middle;resizable=0;points=[];autosize=1;fontSize=26;fontColor=#000000;" vertex="1" parent="NyM_jjObggYpz3M2ubvP-2">
                    <mxGeometry x="75" y="81" width="610" height="40" as="geometry"/>
                </mxCell>
                <mxCell id="NyM_jjObggYpz3M2ubvP-6" value="Cookie Clicker" style="text;html=1;align=center;verticalAlign=middle;resizable=0;points=[];autosize=1;fontSize=30;fontColor=#FFFFFF;" vertex="1" parent="NyM_jjObggYpz3M2ubvP-2">
                    <mxGeometry x="275" y="20" width="220" height="50" as="geometry"/>
                </mxCell>
                <mxCell id="NyM_jjObggYpz3M2ubvP-7" value="&lt;font color=&quot;#ffffff&quot; style=&quot;font-size: 29px;&quot;&gt;1&lt;/font&gt;" style="text;align=center;html=1;verticalAlign=middle;whiteSpace=wrap;rounded=0;fontColor=#000000;" vertex="1" parent="NyM_jjObggYpz3M2ubvP-2">
                    <mxGeometry x="300" y="405" width="170" height="30" as="geometry"/>
                </mxCell>
                <mxCell id="NyM_jjObggYpz3M2ubvP-8" value="" style="group" vertex="1" connectable="0" parent="NyM_jjObggYpz3M2ubvP-2">
                    <mxGeometry x="275" y="146" width="210" height="210" as="geometry"/>
                </mxCell>
                <mxCell id="NyM_jjObggYpz3M2ubvP-9" value="" style="ellipse;whiteSpace=wrap;html=1;fontColor=#FFFFFF;fillColor=#E3A002;strokeColor=#000000;" vertex="1" parent="NyM_jjObggYpz3M2ubvP-8">
                    <mxGeometry width="210" height="210" as="geometry"/>
                </mxCell>
                <mxCell id="NyM_jjObggYpz3M2ubvP-10" value="" style="ellipse;whiteSpace=wrap;html=1;strokeColor=#000000;fontColor=#FFFFFF;fillColor=#994C00;" vertex="1" parent="NyM_jjObggYpz3M2ubvP-8">
                    <mxGeometry x="85" y="110" width="20" height="20" as="geometry"/>
                </mxCell>
                <mxCell id="NyM_jjObggYpz3M2ubvP-11" value="" style="ellipse;whiteSpace=wrap;html=1;strokeColor=#000000;fontColor=#FFFFFF;fillColor=#994C00;" vertex="1" parent="NyM_jjObggYpz3M2ubvP-8">
                    <mxGeometry x="75" y="30" width="20" height="20" as="geometry"/>
                </mxCell>
                <mxCell id="NyM_jjObggYpz3M2ubvP-12" value="" style="ellipse;whiteSpace=wrap;html=1;strokeColor=#000000;fontColor=#FFFFFF;fillColor=#994C00;" vertex="1" parent="NyM_jjObggYpz3M2ubvP-8">
                    <mxGeometry x="145" y="40" width="20" height="20" as="geometry"/>
                </mxCell>
                <mxCell id="NyM_jjObggYpz3M2ubvP-13" value="" style="ellipse;whiteSpace=wrap;html=1;strokeColor=#000000;fontColor=#FFFFFF;fillColor=#994C00;" vertex="1" parent="NyM_jjObggYpz3M2ubvP-8">
                    <mxGeometry x="35" y="70" width="20" height="20" as="geometry"/>
                </mxCell>
                <mxCell id="NyM_jjObggYpz3M2ubvP-14" value="" style="ellipse;whiteSpace=wrap;html=1;strokeColor=#000000;fontColor=#FFFFFF;fillColor=#994C00;" vertex="1" parent="NyM_jjObggYpz3M2ubvP-8">
                    <mxGeometry x="145" y="100" width="20" height="20" as="geometry"/>
                </mxCell>
                <mxCell id="NyM_jjObggYpz3M2ubvP-15" value="" style="ellipse;whiteSpace=wrap;html=1;strokeColor=#000000;fontColor=#FFFFFF;fillColor=#994C00;" vertex="1" parent="NyM_jjObggYpz3M2ubvP-8">
                    <mxGeometry x="115" y="150" width="20" height="20" as="geometry"/>
                </mxCell>
                <mxCell id="NyM_jjObggYpz3M2ubvP-16" value="" style="ellipse;whiteSpace=wrap;html=1;strokeColor=#000000;fontColor=#FFFFFF;fillColor=#994C00;" vertex="1" parent="NyM_jjObggYpz3M2ubvP-8">
                    <mxGeometry x="50" y="160" width="20" height="20" as="geometry"/>
                </mxCell>
            </root>
        </mxGraphModel>
    </diagram>
</mxfile>